HIERARCHY
ROOT Hips
{
	OFFSET 0.00000 0.00000 0.00000
	CHANNELS 6 Xposition Yposition Zposition Zrotation Yrotation Xrotation 
	JOINT LHipJoint
	{
		OFFSET 0 0 0
		CHANNELS 3 Zrotation Yrotation Xrotation
		JOINT LeftUpLeg
		{
			OFFSET 1.76014 -1.80163 0.38499
			CHANNELS 3 Zrotation Yrotation Xrotation
			JOINT LeftLeg
			{
				OFFSET 2.46817 -6.78126 0.00000
				CHANNELS 3 Zrotation Yrotation Xrotation
				JOINT LeftFoot
				{
					OFFSET 2.79348 -7.67503 0.00000
					CHANNELS 3 Zrotation Yrotation Xrotation
					JOINT LeftToeBase
					{
						OFFSET 0.09421 -0.25885 1.91403
						CHANNELS 3 Zrotation Yrotation Xrotation
						End Site
						{
							OFFSET 0.00000 -0.00000 0.97975
						}
					}
				}
			}
		}
	}
	JOINT RHipJoint
	{
		OFFSET 0 0 0
		CHANNELS 3 Zrotation Yrotation Xrotation
		JOINT RightUpLeg
		{
			OFFSET -1.77926 -1.80163 0.38499
			CHANNELS 3 Zrotation Yrotation Xrotation
			JOINT RightLeg
			{
				OFFSET -2.51996 -6.92353 0.00000
				CHANNELS 3 Zrotation Yrotation Xrotation
				JOINT RightFoot
				{
					OFFSET -2.76109 -7.58603 0.00000
					CHANNELS 3 Zrotation Yrotation Xrotation
					JOINT RightToeBase
					{
						OFFSET -0.08067 -0.22163 1.86812
						CHANNELS 3 Zrotation Yrotation Xrotation
						End Site
						{
							OFFSET -0.00000 -0.00000 0.95558
						}
					}
				}
			}
		}
	}
	JOINT LowerBack
	{
		OFFSET 0 0 0
		CHANNELS 3 Zrotation Yrotation Xrotation
		JOINT Spine
		{
			OFFSET 0.05537 1.92033 -0.03713
			CHANNELS 3 Zrotation Yrotation Xrotation
			JOINT Spine1
			{
				OFFSET 0.04452 1.90073 0.10860
				CHANNELS 3 Zrotation Yrotation Xrotation
				JOINT Neck
				{
					OFFSET 0 0 0
					CHANNELS 3 Zrotation Yrotation Xrotation
					JOINT Neck1
					{
						OFFSET 0.00903 1.74649 0.02074
						CHANNELS 3 Zrotation Yrotation Xrotation
						JOINT Head
						{
							OFFSET -0.08608 1.67844 -0.12081
							CHANNELS 3 Zrotation Yrotation Xrotation
							End Site
							{
								OFFSET -0.03521 1.83380 -0.05059
							}
						}
					}
				}
				JOINT LeftShoulder
				{
					OFFSET 0 0 0
					CHANNELS 3 Zrotation Yrotation Xrotation
					JOINT LeftArm
					{
						OFFSET 3.28197 0.84325 -0.19106
						CHANNELS 3 Zrotation Yrotation Xrotation
						JOINT LeftForeArm
						{
							OFFSET 5.24318 -0.00000 -0.00000
							CHANNELS 3 Zrotation Yrotation Xrotation
							JOINT LeftHand
							{
								OFFSET 2.98999 -0.00000 0.00000
								CHANNELS 3 Zrotation Yrotation Xrotation
								JOINT LeftFingerBase
								{
									OFFSET 0 0 0
									CHANNELS 3 Zrotation Yrotation Xrotation
									JOINT LeftHandIndex1
									{
										OFFSET 0.72674 -0.00000 0.00000
										CHANNELS 3 Zrotation Yrotation Xrotation
										End Site
										{
											OFFSET 0.58592 -0.00000 0.00000
										}
									}
								}
								JOINT LThumb
								{
									OFFSET 0 0 0
									CHANNELS 3 Zrotation Yrotation Xrotation
									End Site
									{
										OFFSET 0.59487 -0.00000 0.59487
									}
								}
							}
						}
					}
				}
				JOINT RightShoulder
				{
					OFFSET 0 0 0
					CHANNELS 3 Zrotation Yrotation Xrotation
					JOINT RightArm
					{
						OFFSET -3.30963 0.78377 0.14264
						CHANNELS 3 Zrotation Yrotation Xrotation
						JOINT RightForeArm
						{
							OFFSET -5.37045 -0.00000 0.00000
							CHANNELS 3 Zrotation Yrotation Xrotation
							JOINT RightHand
							{
								OFFSET -2.92792 -0.00000 0.00000
								CHANNELS 3 Zrotation Yrotation Xrotation
								JOINT RightFingerBase
								{
									OFFSET 0 0 0
									CHANNELS 3 Zrotation Yrotation Xrotation
									JOINT RightHandIndex1
									{
										OFFSET -0.78450 -0.00000 0.00000
										CHANNELS 3 Zrotation Yrotation Xrotation
										End Site
										{
											OFFSET -0.63248 -0.00000 0.00000
										}
									}
								}
								JOINT RThumb
								{
									OFFSET 0 0 0
									CHANNELS 3 Zrotation Yrotation Xrotation
									End Site
									{
										OFFSET -0.64214 -0.00000 0.64214
									}
								}
							}
						}
					}
				}
			}
		}
	}
}
MOTION
Frames: 16
Frame Time: .0083333
0.2044 18.273 0.2279 0 0 0 0 0 0 -21 0 0 0 0 0 0 0 0 0 0 0 0 0 0 21 0 0 0 0 0 0 0 0 0 0 0 0 0 0 0 0 0 0 0 0 0 0 -16 0 0 21 0 0 11 0 0 0 -8 0 0 0 0 0 0 0 0 0 0 0 0 0 0 0 0 0 0 0 0 8 0 0 0 0 0 0 0 0 0 0 0 0 0 0 0 0 0
0.2044 18.2730 0.2279 -3.4791 0.2859 9.4716 0.0000 0.0000 0.0000 -13.4928 -30.1944 -4.5962 1.0279 6.4493 18.0938 -1.7356 23.2184 -14.9932 0.3917 -4.0185 -11.1288 0.0000 0.0000 0.0000 0.0000 0.0000 0.0000 0.0000 0.0000 0.0000 -0.0000 -0.0000 0.0000 -0.0000 -0.0000 0.0000 3.0809 -0.3013 -6.6455 2.2086 -0.5946 -3.4928 0.5037 -0.3176 0.1157 2.9925 0.1784 -9.3143 -5.0068 0.4754 12.1467 -2.0187 0.0301 5.1995 0.0000 0.0000 0.0000 -63.9299 -26.4299 12.8753 61.3131 -56.6498 -35.4358 -0.0000 0.0000 -15.2984 13.5865 16.9114 4.0214 -7.1250 0.0000 -0.0000 -13.5663 46.8855 -0.6427 0.0000 0.0000 0.0000 32.8440 34.6356 -16.5543 -52.7148 54.0334 -28.3571 0.0000 -0.0000 -6.8282 -11.2981 8.9938 -1.7889 7.1250 -0.0000 -0.0000 11.1985 -20.8839 6.5958
0.2057 18.2737 0.2314 -3.4288 0.2078 9.4820 0.0000 0.0000 0.0000 -13.5668 -30.1792 -4.5123 1.0132 6.4043 17.9622 -1.7636 23.3412 -14.8607 0.4097 -4.1087 -11.3828 0.0000 0.0000 0.0000 0.0000 0.0000 0.0000 0.0000 0.0000 0.0000 -0.0000 -0.0000 0.0000 -0.0000 -0.0000 0.0000 3.0591 -0.2643 -6.6458 2.2067 -0.5449 -3.4733 0.5172 -0.2922 0.1368 2.8614 0.1506 -9.2988 -4.9151 0.4444 12.1282 -1.9703 0.0154 5.1895 -0.0000 0.0000 0.0000 -64.1345 -25.8202 12.1087 58.4823 -55.8918 -33.0814 -0.0000 0.0000 -15.0965 13.1496 17.3482 3.9848 -7.1250 0.0000 -0.0000 -14.1135 47.2590 -0.8020 -0.0000 0.0000 0.0000 33.7946 33.9692 -17.2733 -50.9653 53.3775 -26.9470 0.0000 -0.0000 -6.3027 -10.8362 8.1382 -1.5522 7.1250 -0.0000 -0.0000 11.5777 -21.7543 6.5949
0.2059 18.2725 0.2363 -3.4084 0.0994 9.4657 0.0000 0.0000 0.0000 -13.6238 -30.1230 -4.4484 1.0089 6.3911 17.9235 -1.7580 23.3510 -15.0586 0.3812 -3.9650 -10.9782 0.0000 0.0000 0.0000 0.0000 0.0000 0.0000 0.0000 0.0000 0.0000 -0.0000 -0.0000 0.0000 -0.0000 -0.0000 0.0000 3.0227 -0.2408 -6.6129 2.2265 -0.5108 -3.4552 0.5602 -0.2745 0.1383 2.8237 0.1452 -9.3011 -4.8905 0.4409 12.1792 -1.9571 0.0133 5.2055 -0.0000 -0.0000 0.0000 -64.3112 -25.1940 11.2862 55.6314 -55.0287 -30.7327 -0.0000 0.0000 -14.8398 12.6267 17.7052 3.8974 -7.1250 0.0000 -0.0000 -14.7188 47.5396 -0.9417 -0.0000 -0.0000 0.0000 34.8090 33.2408 -17.8365 -49.3022 52.7101 -25.6179 0.0000 -0.0000 -5.7816 -10.6780 7.2644 -1.3658 7.1250 -0.0000 -0.0000 11.7488 -22.6295 6.4566
0.2069 18.2722 0.2405 -3.3916 0.0580 9.5052 0.0000 0.0000 0.0000 -13.6476 -30.1623 -4.4310 1.0057 6.3813 17.8950 -1.7493 23.3469 -15.2632 0.3338 -3.7128 -10.2700 0.0000 0.0000 0.0000 0.0000 0.0000 0.0000 0.0000 0.0000 0.0000 -0.0000 -0.0000 0.0000 -0.0000 -0.0000 0.0000 3.0050 -0.2383 -6.6146 2.2487 -0.5073 -3.4416 0.5931 -0.2721 0.1538 2.8434 0.1457 -9.3253 -4.9404 0.4444 12.1602 -1.9757 0.0123 5.2040 -0.0000 0.0000 0.0000 -64.5238 -24.6450 10.4575 52.8138 -54.0692 -28.4372 -0.0000 0.0000 -14.6446 12.3233 17.9632 3.8545 -7.1250 0.0000 -0.0000 -15.0906 47.7509 -1.0467 -0.0000 0.0000 0.0000 35.7693 32.4291 -18.2271 -47.5496 51.9581 -24.2306 0.0000 -0.0000 -5.5704 -10.6814 6.7747 -1.2746 7.1250 -0.0000 -0.0000 11.7809 -23.1170 6.3403
0.2079 18.2715 0.2437 -3.4280 0.0398 9.5581 0.0000 0.0000 0.0000 -13.5872 -30.1809 -4.4753 1.0067 6.3843 17.9036 -1.7401 23.3306 -15.4161 0.3115 -3.5881 -9.9207 0.0000 0.0000 0.0000 0.0000 0.0000 0.0000 0.0000 0.0000 0.0000 -0.0000 -0.0000 0.0000 -0.0000 -0.0000 0.0000 3.0628 -0.2411 -6.6094 2.2710 -0.5144 -3.4376 0.5833 -0.2762 0.1544 2.8450 0.1471 -9.3708 -4.9559 0.4467 12.1457 -1.9806 0.0120 5.2074 0.0000 0.0000 0.0000 -64.7219 -24.1030 9.6459 50.0661 -53.0221 -26.2270 -0.0000 0.0000 -14.5450 12.4248 18.1557 3.9273 -7.1250 0.0000 -0.0000 -15.0661 47.9533 -1.1216 0.0000 0.0000 0.0000 36.7414 31.6084 -18.5868 -45.7834 51.1466 -22.8472 0.0000 -0.0000 -5.4034 -10.6231 6.5290 -1.2218 7.1250 -0.0000 -0.0000 11.8415 -23.3630 6.3058
0.2085 18.2722 0.2468 -3.4790 0.0437 9.6323 0.0000 0.0000 0.0000 -13.4972 -30.1702 -4.5552 1.0079 6.3879 17.9142 -1.7252 23.2681 -15.4910 0.2988 -3.5146 -9.7148 0.0000 0.0000 0.0000 0.0000 0.0000 0.0000 0.0000 0.0000 0.0000 -0.0000 -0.0000 0.0000 -0.0000 -0.0000 0.0000 3.1304 -0.2512 -6.6856 2.3043 -0.5370 -3.4074 0.5776 -0.2871 0.2271 2.8322 0.1562 -9.4049 -4.9575 0.4586 12.0908 -1.9778 0.0171 5.1966 -0.0000 0.0000 0.0000 -64.9123 -23.6124 8.7781 47.3157 -51.8538 -24.0464 -0.0000 0.0000 -14.2764 12.4884 18.3550 3.9897 -7.1250 0.0000 -0.0000 -15.0796 48.1572 -1.2000 -0.0000 0.0000 0.0000 37.8046 30.9529 -19.2852 -44.4430 50.4927 -21.8081 0.0000 -0.0000 -4.7740 -10.2429 6.0716 -1.0950 7.1250 -0.0000 -0.0000 12.1540 -23.8257 6.3469
0.2095 18.2734 0.2492 -3.4718 0.0799 9.6802 0.0000 0.0000 0.0000 -13.4814 -30.1851 -4.6024 1.0079 6.3879 17.9142 -1.7320 23.2778 -15.3684 0.3188 -3.6293 -10.0360 0.0000 0.0000 0.0000 0.0000 0.0000 0.0000 0.0000 0.0000 0.0000 -0.0000 -0.0000 0.0000 -0.0000 -0.0000 0.0000 3.1296 -0.2860 -6.7304 2.3333 -0.5867 -3.3789 0.6041 -0.3110 0.2810 2.8581 0.1693 -9.3727 -4.9996 0.4750 11.9841 -1.9932 0.0246 5.1589 0.0000 -0.0000 0.0000 -65.0081 -23.0187 8.0675 44.6300 -50.5859 -21.9525 -0.0000 0.0000 -13.9167 12.5775 18.5776 4.0658 -7.1250 0.0000 -0.0000 -15.0788 48.3878 -1.2873 0.0000 -0.0000 0.0000 38.9312 30.3811 -20.1151 -43.3140 49.9153 -20.9407 0.0000 -0.0000 -3.8276 -9.6530 5.3090 -0.9016 7.1250 -0.0000 -0.0000 12.6512 -24.5917 6.3888
0.2092 18.2724 0.2508 -3.4513 0.1146 9.6937 0.0000 0.0000 0.0000 -13.4803 -30.2010 -4.6380 1.0075 6.3868 17.9111 -1.7415 23.3045 -15.2568 0.3331 -3.7093 -10.2602 0.0000 0.0000 0.0000 0.0000 0.0000 0.0000 0.0000 0.0000 0.0000 -0.0000 -0.0000 0.0000 -0.0000 -0.0000 0.0000 3.1099 -0.3179 -6.6839 2.3561 -0.6265 -3.3627 0.6361 -0.3305 0.2719 2.8694 0.1901 -9.3495 -5.0231 0.5037 11.9422 -1.9999 0.0381 5.1432 0.0000 0.0000 0.0000 -65.0432 -22.3335 7.5734 42.0606 -49.2444 -19.9864 -0.0000 0.0000 -13.6062 12.8283 18.6124 4.1568 -7.1250 0.0000 -0.0000 -14.8578 48.4575 -1.2936 0.0000 0.0000 0.0000 39.9002 29.5201 -20.4432 -41.9304 49.1729 -19.8879 0.0000 -0.0000 -3.2829 -9.5179 4.7000 -0.7871 7.1250 -0.0000 -0.0000 12.8071 -25.1957 6.2867
0.2088 18.2719 0.2525 -3.4779 0.0683 9.7348 0.0000 0.0000 0.0000 -13.4256 -30.2831 -4.6633 1.0065 6.3838 17.9020 -1.7781 23.4699 -15.1229 0.3575 -3.8410 -10.6297 0.0000 0.0000 0.0000 0.0000 0.0000 0.0000 0.0000 0.0000 0.0000 -0.0000 -0.0000 0.0000 -0.0000 -0.0000 0.0000 3.1389 -0.3253 -6.6151 2.3877 -0.6340 -3.3891 0.6527 -0.3352 0.2064 2.9525 0.2395 -9.2756 -5.1074 0.5703 11.9209 -2.0349 0.0699 5.1272 0.0000 -0.0000 0.0000 -65.2247 -21.5982 6.9478 39.7982 -47.9499 -18.2892 -0.0000 0.0000 -13.0409 12.9727 18.7701 4.2393 -7.1250 0.0000 -0.0000 -14.7813 48.6329 -1.3517 0.0000 -0.0000 0.0000 40.7831 28.3541 -20.1489 -40.4297 48.3224 -18.7595 0.0000 -0.0000 -3.2464 -9.8297 4.2158 -0.7298 7.1250 -0.0000 -0.0000 12.6229 -25.6718 6.0481
0.2084 18.2710 0.2544 -3.5339 -0.0056 9.7654 0.0000 0.0000 0.0000 -13.3560 -30.2901 -4.6761 1.0051 6.3794 17.8892 -1.7903 23.5372 -15.1385 0.3608 -3.8586 -10.6791 0.0000 0.0000 0.0000 0.0000 0.0000 0.0000 0.0000 0.0000 0.0000 -0.0000 -0.0000 0.0000 -0.0000 -0.0000 0.0000 3.2058 -0.3245 -6.5345 2.4323 -0.6324 -3.4108 0.6619 -0.3357 0.1389 3.0244 0.2568 -9.2628 -5.2267 0.6005 11.9576 -2.0822 0.0798 5.1380 0.0000 -0.0000 0.0000 -65.5927 -21.1225 5.8153 37.3770 -46.4368 -16.5127 -0.0000 0.0000 -11.9358 12.5870 18.8697 4.1304 -7.1250 0.0000 -0.0000 -15.1789 48.6749 -1.4056 0.0000 -0.0000 0.0000 41.7339 27.3869 -20.1590 -38.9893 47.4596 -17.6909 0.0000 -0.0000 -2.8719 -9.8478 3.6874 -0.6396 7.1250 -0.0000 -0.0000 12.6619 -26.1950 5.9087
0.2086 18.2713 0.2572 -3.5229 -0.0506 9.8117 0.0000 0.0000 0.0000 -13.3607 -30.2774 -4.6927 1.0031 6.3732 17.8711 -1.7692 23.4670 -15.3379 0.3299 -3.6917 -10.2108 0.0000 0.0000 0.0000 0.0000 0.0000 0.0000 0.0000 0.0000 0.0000 -0.0000 -0.0000 0.0000 -0.0000 -0.0000 0.0000 3.2157 -0.3412 -6.5238 2.4624 -0.6553 -3.4023 0.6860 -0.3470 0.1418 3.0053 0.2537 -9.3308 -5.2883 0.6073 11.9912 -2.0984 0.0770 5.1604 -0.0000 0.0000 0.0000 -66.0654 -20.8579 4.2259 34.8612 -44.7128 -14.7156 -0.0000 0.0000 -10.3729 11.7472 18.9127 3.8560 -7.1250 0.0000 -0.0000 -15.9781 48.5959 -1.4513 -0.0000 0.0000 0.0000 42.7457 26.6863 -20.5695 -37.5822 46.5704 -16.6615 0.0000 -0.0000 -2.1575 -9.5681 2.9819 -0.5024 7.1250 -0.0000 -0.0000 12.9451 -26.8937 5.8292
0.2079 18.2726 0.2610 -3.4510 -0.0903 9.8456 0.0000 0.0000 0.0000 -13.4530 -30.2529 -4.6684 0.9999 6.3634 17.8427 -1.7704 23.4813 -15.3757 0.3265 -3.6726 -10.1574 0.0000 0.0000 0.0000 0.0000 0.0000 0.0000 0.0000 0.0000 0.0000 -0.0000 -0.0000 0.0000 -0.0000 -0.0000 0.0000 3.1507 -0.3751 -6.4827 2.4677 -0.6950 -3.3965 0.7255 -0.3662 0.1254 2.9957 0.2743 -9.3781 -5.3201 0.6390 11.9663 -2.1044 0.0894 5.1622 -0.0000 -0.0000 0.0000 -66.5248 -20.3358 2.7864 32.9553 -43.2956 -13.3914 -0.0000 0.0000 -8.9334 11.0288 19.3960 3.7034 -7.1250 0.0000 -0.0000 -16.8375 48.9599 -1.6880 -0.0000 -0.0000 0.0000 43.7470 25.8919 -20.7665 -36.2616 45.6923 -15.7094 0.0000 -0.0000 -1.5314 -9.3292 2.1544 -0.3538 7.1250 -0.0000 -0.0000 13.2183 -27.7102 5.6968
0.2073 18.2738 0.2637 -3.4041 -0.1301 9.8930 0.0000 0.0000 0.0000 -13.4956 -30.2862 -4.6710 0.9976 6.3563 17.8217 -1.7849 23.5605 -15.3913 0.3272 -3.6766 -10.1686 0.0000 0.0000 0.0000 0.0000 0.0000 0.0000 0.0000 0.0000 0.0000 -0.0000 -0.0000 0.0000 -0.0000 -0.0000 0.0000 3.0814 -0.4133 -6.4181 2.4964 -0.7387 -3.4061 0.7917 -0.3875 0.0807 2.9834 0.3245 -9.3789 -5.3232 0.7080 11.9358 -2.0982 0.1226 5.1559 -0.0000 -0.0000 0.0000 -66.9358 -19.7462 1.5264 31.1857 -41.8882 -12.1936 -0.0000 0.0000 -7.7117 10.6627 19.9507 3.6758 -7.1250 0.0000 -0.0000 -17.4073 49.4402 -1.9591 -0.0000 -0.0000 0.0000 44.6408 24.9740 -20.6900 -35.0017 44.8134 -14.8146 0.0000 -0.0000 -0.9106 -9.2355 1.3611 -0.2213 7.1250 -0.0000 -0.0000 13.3851 -28.4918 5.5175
0.2068 18.2744 0.2680 -3.4164 -0.1769 9.9549 0.0000 0.0000 0.0000 -13.4617 -30.3926 -4.6809 0.9969 6.3542 17.8157 -1.7879 23.6220 -15.6097 0.2934 -3.4832 -9.6271 0.0000 0.0000 0.0000 0.0000 0.0000 0.0000 0.0000 0.0000 0.0000 -0.0000 -0.0000 0.0000 -0.0000 -0.0000 0.0000 3.0820 -0.4137 -6.4298 2.5200 -0.7412 -3.3800 0.8152 -0.3882 0.1144 2.9998 0.3399 -9.3798 -5.3243 0.7239 11.8637 -2.0995 0.1316 5.1345 -0.0000 -0.0000 0.0000 -67.3395 -19.3256 0.2132 29.2966 -40.2828 -10.9519 -0.0000 0.0000 -6.3689 10.2104 20.2599 3.5689 -7.1250 0.0000 -0.0000 -17.9619 49.6686 -2.1288 -0.0000 -0.0000 0.0000 45.4867 24.0465 -20.6131 -33.6735 43.8414 -13.8864 0.0000 -0.0000 -0.2751 -9.2762 0.7357 -0.1202 7.1250 -0.0000 -0.0000 13.4334 -29.1087 5.3358
0.2074 18.2739 0.2744 -3.5240 -0.1792 10.0161 0.0000 0.0000 0.0000 -13.3185 -30.4031 -4.7324 0.9976 6.3563 17.8217 -1.8000 23.6709 -15.5449 0.3096 -3.5773 -9.8905 0.0000 0.0000 0.0000 0.0000 0.0000 0.0000 0.0000 0.0000 0.0000 -0.0000 -0.0000 0.0000 -0.0000 -0.0000 0.0000 3.2073 -0.4240 -6.4964 2.5765 -0.7677 -3.3281 0.8006 -0.4013 0.2034 2.9333 0.3505 -9.4657 -5.2798 0.7382 11.8005 -2.0734 0.1380 5.1299 -0.0000 0.0000 0.0000 -67.7143 -18.8237 -1.0070 27.6029 -38.7481 -9.8741 -0.0000 0.0000 -5.2224 9.8016 20.6143 3.4807 -7.1250 0.0000 -0.0000 -18.4998 49.9449 -2.3255 -0.0000 0.0000 0.0000 46.2668 23.1550 -20.4532 -32.2521 42.7472 -12.9116 0.0000 0.0000 0.4787 -9.2028 0.0627 -0.0102 7.1250 -0.0000 -0.0000 13.5790 -29.7705 5.1762
